<svg id="Layer_1" data-name="Layer 1" xmlns="http://www.w3.org/2000/svg" viewBox="0 0 455.3 408.64"><defs><style>.cls-1{fill:#fff;}.cls-2{fill:#6dc5a2;}.cls-3{fill:#a1d294;}.cls-4{fill:#aedbcf;}.cls-5{fill:#44acbc;}</style></defs><title>logokel</title><polygon class="cls-1" points="207.54 234.71 207.98 234.71 207.77 234.98 207.54 234.71"/><polygon class="cls-2" points="195.93 249.82 229.91 289.37 202.66 323.53 201.72 324.71 136.2 324.71 121.84 342.71 111.56 355.6 90 382.62 69.25 408.64 0 408.64 0 351.13 6.71 342.71 21.07 324.71 51.86 286.11 79.11 251.95 90 238.3 92.86 234.71 108.98 214.5 113.8 208.46 136.23 180.34 160.4 208.46 182.95 234.71 195.93 249.82"/><polygon class="cls-3" points="418.98 342.71 455.3 384.98 436.43 408.64 321.31 408.64 326.64 401.95 338.48 387.11 301.45 344.01 300.33 342.71 284.86 324.71 241.75 274.53 207.77 234.98 207.98 234.71 207.54 234.71 184.98 208.46 148.07 165.5 185.59 118.46 226.31 118.46 264.89 163.36 298.87 202.91 303.64 208.46 326.19 234.71 358.57 272.4 395.6 315.5 403.52 324.71 418.98 342.71"/><polygon class="cls-4" points="381.87 118.46 433.46 178.51 409.57 208.46 340.54 208.46 316.63 180.64 282.66 141.1 263.21 118.46 222.96 71.61 280.08 0 339.78 69.48 373.76 109.03 366.24 118.46 381.87 118.46"/><polygon class="cls-5" points="219.14 342.71 262.36 393.01 249.89 408.64 157.13 408.64 145.53 395.14 172.78 360.98 157.09 342.71 219.14 342.71"/></svg>