<svg id="Layer_1" data-name="Layer 1" xmlns="http://www.w3.org/2000/svg" viewBox="0 0 649.5 445.16"><defs><style>.cls-1{fill:#97cc1e;}.cls-1,.cls-2,.cls-8{stroke:#000;stroke-miterlimit:10;}.cls-2{fill:#b8cc1e;}.cls-3{fill:#35a29f;}.cls-4{fill:#fff;}.cls-5{fill:#088395;}.cls-6{fill:#f2f7a1;}.cls-7{fill:#071952;}.cls-8{fill:#9f9400;}.cls-9{fill:#743700;}</style></defs><title>raya</title><path class="cls-1" d="M179.45,245.09v10.8a33,33,0,0,1-1.7,10.48H72.7A33,33,0,0,1,71,255.89v-10.8a32.9,32.9,0,0,1,16.27-28.41v.63A5.68,5.68,0,0,0,93,223h66.1a5.68,5.68,0,0,0,5.67-5.36A32.92,32.92,0,0,1,179.45,245.09Z" transform="translate(-70.5 -139.59)"/><path class="cls-2" d="M159.05,179.61H93a5.68,5.68,0,0,0-5.68,5.68v32A5.68,5.68,0,0,0,93,223h66.1a5.68,5.68,0,0,0,5.67-5.36c0-.1,0-.21,0-.32v-32A5.68,5.68,0,0,0,159.05,179.61Zm-53,15.66a8.49,8.49,0,0,1,6-2.49h27.88a8.52,8.52,0,1,1,0,17H112.06a8.52,8.52,0,0,1-6-14.55Z" transform="translate(-70.5 -139.59)"/><path class="cls-3" d="M192.23,416.15a13.08,13.08,0,0,1-13.06-13.06V377.53a14.06,14.06,0,0,0-14-14H140.94a14,14,0,0,0-13.64,17.45l4.44,17.8a13.06,13.06,0,1,1-25.34,6.32L71.94,266.82A13,13,0,0,1,84.6,250.6h80.52a13.07,13.07,0,0,1,13,13.06v62.75a14.07,14.07,0,0,0,14.06,14,13.08,13.08,0,0,1,13.06,13.06v49.57A13.08,13.08,0,0,1,192.23,416.15ZM119.31,276.72a14,14,0,0,0-13.64,17.45l8.11,32.54a14,14,0,0,0,13.64,10.65H138a14.06,14.06,0,0,0,14.05-14.05V290.77a14.06,14.06,0,0,0-14.05-14Z" transform="translate(-70.5 -139.59)"/><path d="M165.12,251.1a12.57,12.57,0,0,1,12.55,12.56v62.75A14.57,14.57,0,0,0,192.23,341a12.58,12.58,0,0,1,12.56,12.56v49.57a12.56,12.56,0,0,1-25.12,0V377.53A14.57,14.57,0,0,0,165.12,363H140.94a14.55,14.55,0,0,0-14.12,18.07l4.43,17.8a12.55,12.55,0,1,1-24.36,6.08L75,277,72.42,266.7A12.56,12.56,0,0,1,84.6,251.1h80.52m-37.7,86.76H138a14.57,14.57,0,0,0,14.55-14.55V290.77A14.57,14.57,0,0,0,138,276.22h-18.7a14.56,14.56,0,0,0-14.13,18.07l8.11,32.54a14.53,14.53,0,0,0,14.13,11m37.7-87.76H84.6a13.56,13.56,0,0,0-13.15,16.84L74,277.22l31.91,128a13.55,13.55,0,0,0,13.14,10.28,13.3,13.3,0,0,0,3.29-.41h0a13.55,13.55,0,0,0,9.88-16.43l-4.44-17.8A13.55,13.55,0,0,1,140.94,364h24.18a13.54,13.54,0,0,1,13.55,13.55v25.56a13.56,13.56,0,0,0,13.56,13.56h0a13.56,13.56,0,0,0,13.56-13.56V353.52A13.56,13.56,0,0,0,192.23,340h0a13.56,13.56,0,0,1-13.56-13.55V263.66a13.55,13.55,0,0,0-13.55-13.56Zm-37.7,86.76a13.53,13.53,0,0,1-13.15-10.27l-8.12-32.54a13.56,13.56,0,0,1,13.16-16.83H138a13.55,13.55,0,0,1,13.55,13.55v32.54A13.55,13.55,0,0,1,138,336.86Z" transform="translate(-70.5 -139.59)"/><path class="cls-3" d="M459.7,277.88l19.83.05-.1,0s0,0,0,0l-12.86,0-7,0Z" transform="translate(-70.5 -139.59)"/><path d="M459.7,277.88l-.14,0,7,0,12.86,0h0l.1,0-19.83-.05Z" transform="translate(-70.5 -139.59)"/><path class="cls-4" d="M458.07,414.52a31.49,31.49,0,0,1,.81-3.25Z" transform="translate(-70.5 -139.59)"/><path d="M458.88,411.27a31.49,31.49,0,0,0-.81,3.25l.81-3.25Z" transform="translate(-70.5 -139.59)"/><polygon class="cls-3" points="538.87 0 538.87 1.25 538.65 0.37 538.56 0 538.87 0"/><polygon points="538.87 0 538.56 0 538.65 0.37 538.87 1.25 538.87 0 538.87 0"/><path class="cls-5" d="M134.44,473.47a12.64,12.64,0,0,1-12.29-9.6l-6.35-25.48A12.67,12.67,0,0,1,125,423l.75-.19a12.69,12.69,0,0,1,15.35,9.23l1.23,4.93a13.65,13.65,0,0,0,13.26,10.36h159A13.65,13.65,0,0,0,327.85,437L342,380.45a13.66,13.66,0,0,0-13.27-17H304.17a12.69,12.69,0,0,1-12.67-12.67V263.27a12.67,12.67,0,1,1,25.33,0v60.42a13.69,13.69,0,0,0,13.67,13.67H342A13.66,13.66,0,0,0,355.28,327l16.65-66.79a12.64,12.64,0,0,1,12.29-9.61h35.43a12.68,12.68,0,0,1,12.27,15.83l-.2.77a12.68,12.68,0,0,1-12.27,9.52H405.4a13.65,13.65,0,0,0-13.26,10.36L373,363.85l-24.94,100a12.64,12.64,0,0,1-12.29,9.6Z" transform="translate(-70.5 -139.59)"/><path d="M419.65,251.1a12.18,12.18,0,0,1,11.78,15.2l-.2.78a12.16,12.16,0,0,1-11.78,9.14H405.4A14.13,14.13,0,0,0,391.66,287l-12.39,49.66-6.76,27.11-20.66,82.89-4.27,17.13A12.15,12.15,0,0,1,335.77,473H134.44a12.14,12.14,0,0,1-11.8-9.22l-4.28-17.13-2.08-8.35a12.17,12.17,0,0,1,8.87-14.75l.75-.19a12.28,12.28,0,0,1,2.95-.36,12.15,12.15,0,0,1,11.8,9.22l1.23,4.93a14.14,14.14,0,0,0,13.74,10.74h159a14.15,14.15,0,0,0,13.75-10.74l14.1-56.55A14.16,14.16,0,0,0,328.68,363H304.17A12.18,12.18,0,0,1,292,350.81V263.27a12.17,12.17,0,1,1,24.33,0v60.42a14.18,14.18,0,0,0,14.17,14.17H342a14.14,14.14,0,0,0,13.75-10.74l12.39-49.66,4.26-17.13a12.16,12.16,0,0,1,11.81-9.23h35.43m0-1H384.22a13.17,13.17,0,0,0-12.78,10l-4.27,17.13-12.38,49.66a13.16,13.16,0,0,1-12.78,10H330.5a13.17,13.17,0,0,1-13.17-13.17V263.27a13.17,13.17,0,1,0-26.33,0v87.54A13.17,13.17,0,0,0,304.17,364h24.51a13.16,13.16,0,0,1,12.78,16.35l-14.1,56.55a13.16,13.16,0,0,1-12.78,10h-159a13.17,13.17,0,0,1-12.77-10L141.62,432a13.18,13.18,0,0,0-12.77-10,13,13,0,0,0-3.19.39l-.75.19a13.16,13.16,0,0,0-9.6,16l2.08,8.35L121.67,464a13.16,13.16,0,0,0,12.77,10H335.77a13.17,13.17,0,0,0,12.78-10l4.27-17.13L373.48,364l6.76-27.12,12.39-49.66a13.16,13.16,0,0,1,12.77-10h14.05a13.17,13.17,0,0,0,12.75-9.89l.2-.78a13.17,13.17,0,0,0-12.75-16.45Z" transform="translate(-70.5 -139.59)"/><path class="cls-5" d="M150,584.25a27.39,27.39,0,1,1,27.39-27.39A27.42,27.42,0,0,1,150,584.25Zm0-44.93a17.54,17.54,0,1,0,17.55,17.54A17.56,17.56,0,0,0,150,539.32Z" transform="translate(-70.5 -139.59)"/><path d="M150,530a26.89,26.89,0,1,1-26.88,26.89A26.92,26.92,0,0,1,150,530m0,44.93a18,18,0,1,0-18-18,18.07,18.07,0,0,0,18,18M150,529a27.89,27.89,0,1,0,27.89,27.89A27.89,27.89,0,0,0,150,529Zm0,44.93a17,17,0,1,1,17.05-17,17,17,0,0,1-17.05,17Z" transform="translate(-70.5 -139.59)"/><path class="cls-5" d="M318.88,584.25a27.39,27.39,0,1,1,27.39-27.39A27.42,27.42,0,0,1,318.88,584.25Zm0-44.93a17.54,17.54,0,1,0,17.55,17.54A17.56,17.56,0,0,0,318.88,539.32Z" transform="translate(-70.5 -139.59)"/><path d="M318.88,530A26.89,26.89,0,1,1,292,556.86,26.92,26.92,0,0,1,318.88,530m0,44.93a18,18,0,1,0-18-18,18.07,18.07,0,0,0,18,18m0-45.93a27.89,27.89,0,1,0,27.89,27.89A27.89,27.89,0,0,0,318.88,529Zm0,44.93a17,17,0,1,1,17.05-17,17,17,0,0,1-17.05,17Z" transform="translate(-70.5 -139.59)"/><path class="cls-6" d="M277.44,416.15a13.08,13.08,0,0,1-13.06-13.06V290.77a14.06,14.06,0,0,0-14-14h-31a14.06,14.06,0,0,0-14.05,14v28.66a13.06,13.06,0,1,1-26.12,0V188a56.06,56.06,0,0,1,111.33,9.37V403.09a13.08,13.08,0,0,1-13.06,13.06Zm-42.6-251.76a29.92,29.92,0,0,0-6.85.79,30.64,30.64,0,0,0-22.69,23v48.41a14.06,14.06,0,0,0,14.05,14h31a14.06,14.06,0,0,0,14-14V188.14a30.64,30.64,0,0,0-22.69-23A29.9,29.9,0,0,0,234.84,164.39Z" transform="translate(-70.5 -139.59)"/><path d="M234.45,141.78A55.64,55.64,0,0,1,290,197.38V403.09a12.56,12.56,0,0,1-25.12,0V290.77a14.57,14.57,0,0,0-14.55-14.55h-31a14.57,14.57,0,0,0-14.55,14.55v28.66a12.56,12.56,0,1,1-25.12,0V188.09a55.58,55.58,0,0,1,54.78-46.31M219.34,251.1h31a14.57,14.57,0,0,0,14.55-14.55V188.14l0-.11A31.13,31.13,0,0,0,241.8,164.7a29.84,29.84,0,0,0-7-.81,30.26,30.26,0,0,0-7,.8A31.17,31.17,0,0,0,204.81,188l0,.11v48.41a14.57,14.57,0,0,0,14.55,14.55m15.11-110.32A56.58,56.58,0,0,0,178.67,188V319.43a13.56,13.56,0,0,0,27.12,0V290.77a13.55,13.55,0,0,1,13.55-13.55h31a13.55,13.55,0,0,1,13.55,13.55V403.09a13.56,13.56,0,0,0,27.12,0V197.38a56.58,56.58,0,0,0-56.55-56.6ZM219.34,250.1a13.55,13.55,0,0,1-13.55-13.55v-48.3a30,30,0,0,1,22.31-22.58,29.47,29.47,0,0,1,13.47,0,30,30,0,0,1,22.31,22.58v48.3a13.55,13.55,0,0,1-13.55,13.55Z" transform="translate(-70.5 -139.59)"/><path class="cls-7" d="M190.31,406.47c-.62-2.67-4.3-17.28-10.75-19.25v-4.41c1.8.58,7.59,3.5,10.3,17.7a.84.84,0,0,0,.84.69.83.83,0,0,0,.82-.66c1-4.64,4.38-15.54,13.77-18v3.66c-1.68.79-9.27,5.1-14.2,20.29Z" transform="translate(-70.5 -139.59)"/><path d="M204.79,383.19v2.68c-2.18,1.13-9.33,5.78-14.06,20.1h0c-.87-3.68-4.38-16.76-10.64-19.11v-3.32c2.16,1,6.92,4.55,9.31,17.06a1.35,1.35,0,0,0,2.64,0c1-4.45,4.13-14.74,12.78-17.46m1-1.3c-10.2,2.23-13.74,13.92-14.76,18.54a.33.33,0,0,1-.33.27.34.34,0,0,1-.35-.29c-3.34-17.51-11.29-18.23-11.29-18.23v5.42c7,1.55,10.85,19.37,10.85,19.37h1.55c5.42-17,14.33-20.47,14.33-20.47v-4.61Z" transform="translate(-70.5 -139.59)"/><path class="cls-6" d="M343,336.09c-.24,0-.48,0-.72,0a34.56,34.56,0,0,1-6.36-1,34.11,34.11,0,0,1-4.88-1.65,11.2,11.2,0,0,1-6.4-13.05l.32-1.24a11.64,11.64,0,0,1,3.73-5.84A18.14,18.14,0,0,0,334.5,304a17.48,17.48,0,0,0,.57-4,18,18,0,0,0-1.14-7,11.42,11.42,0,0,1-.75-4.7L362,294.85a12.18,12.18,0,0,1-3.3,3.94,18.12,18.12,0,0,0-4.94,6,18.48,18.48,0,0,0-1.45,3.78,18.12,18.12,0,0,0,.84,11.65,11.51,11.51,0,0,1,.64,7.39l0,.12A11.09,11.09,0,0,1,343,336.09Z" transform="translate(-70.5 -139.59)"/><path d="M333.67,288.9l27.53,6.29a11.73,11.73,0,0,1-2.85,3.21,18.53,18.53,0,0,0-5.07,6.16,18.73,18.73,0,0,0-.63,15.86,11,11,0,0,1,.61,7.06l0,.12a10.57,10.57,0,0,1-10.21,8c-.23,0-.45,0-.68,0a34.58,34.58,0,0,1-11.08-2.65,10.69,10.69,0,0,1-6.12-12.46l.33-1.25a11.07,11.07,0,0,1,3.57-5.58,18.65,18.65,0,0,0,5.94-9.54,17.81,17.81,0,0,0,.59-4.12,18.55,18.55,0,0,0-1.17-7.16,11.12,11.12,0,0,1-.73-3.91m-.94-1.23a12,12,0,0,0,.73,5.49,17.57,17.57,0,0,1,1.11,6.78,16.92,16.92,0,0,1-.56,3.9,17.63,17.63,0,0,1-5.62,9A12.07,12.07,0,0,0,324.5,319l-.33,1.25a11.63,11.63,0,0,0,6.7,13.63,34.26,34.26,0,0,0,4.95,1.68,35.23,35.23,0,0,0,6.45,1.05c.25,0,.5,0,.75,0a11.6,11.6,0,0,0,11.18-8.74l0-.11a12,12,0,0,0-.66-7.71,17.69,17.69,0,0,1-.81-11.33,17.31,17.31,0,0,1,1.41-3.68,17.53,17.53,0,0,1,4.8-5.84,12.46,12.46,0,0,0,3.71-4.67l-29.95-6.84Z" transform="translate(-70.5 -139.59)"/><path class="cls-6" d="M341.89,267a14.92,14.92,0,0,1,6.76-3.13l-.06.23,11.46,3,.06-.23a14.89,14.89,0,0,1,4.05,5.25Z" transform="translate(-70.5 -139.59)"/><path d="M348.11,264.51l.83.22,10.5,2.72.84.21a14.63,14.63,0,0,1,3,3.72l-20.18-4.61a14.48,14.48,0,0,1,5.06-2.26m1.21-1.23a15.58,15.58,0,0,0-8.51,4l24.2,5.53a15.5,15.5,0,0,0-5.19-6.82l-.13.48-10.49-2.72.12-.48Z" transform="translate(-70.5 -139.59)"/><rect class="cls-7" x="352.91" y="257.58" width="4.42" height="9.84" transform="translate(-58.53 400.87) rotate(-75.48)"/><path d="M351.27,259.73l8.56,2.22-.85,3.31-8.57-2.21.86-3.32m-.72-1.22-1.36,5.25,10.5,2.72,1.36-5.25-10.5-2.72Z" transform="translate(-70.5 -139.59)"/><path class="cls-8" d="M310.93,446.86H151.56s-2.71-15.1,60-15.1S298.72,429.43,310.93,446.86Z" transform="translate(-70.5 -139.59)"/><rect class="cls-9" x="173.25" y="434.47" width="2.32" height="5.42" transform="translate(-151.45 -97.81) rotate(-11.11)"/><rect class="cls-9" x="118.24" y="292.55" width="2.32" height="5.42"/><rect class="cls-9" x="132.19" y="292.55" width="2.32" height="5.42"/><rect class="cls-9" x="143.03" y="292.55" width="2.32" height="5.42"/><rect class="cls-9" x="153.88" y="292.55" width="2.32" height="5.42"/><rect class="cls-9" x="165.5" y="292.55" width="2.32" height="5.42"/><rect class="cls-9" x="177.89" y="292.55" width="2.32" height="5.42"/><rect class="cls-9" x="190.29" y="292.55" width="2.32" height="5.42"/><rect class="cls-9" x="270.86" y="433.69" width="5.42" height="2.32" transform="translate(-249.01 539.32) rotate(-86.19)"/><rect class="cls-9" x="285.57" y="435.24" width="5.42" height="2.32" transform="translate(-271.49 481.65) rotate(-77.25)"/><path class="cls-7" d="M301.83,250.38a1.05,1.05,0,0,1,0-2.1h5.44a1.05,1.05,0,0,1,0,2.1Z" transform="translate(-70.5 -139.59)"/><path d="M307.27,248.78a.55.55,0,0,1,0,1.1h-5.44a.55.55,0,0,1,0-1.1h5.44m0-1h-5.44a1.54,1.54,0,0,0-1.54,1.54v0a1.54,1.54,0,0,0,1.54,1.54h5.44a1.54,1.54,0,0,0,1.54-1.54v0a1.54,1.54,0,0,0-1.54-1.54Z" transform="translate(-70.5 -139.59)"/><path class="cls-5" d="M301.79,247.67a35.88,35.88,0,0,0-1.72-3.67,8.42,8.42,0,0,0,1.8.24,3.08,3.08,0,0,0,1.36-.27,1.28,1.28,0,0,1,.59-.17,1.56,1.56,0,0,1,.57.15,3.19,3.19,0,0,0,1.29.29A4.28,4.28,0,0,0,307,244a3.39,3.39,0,0,1,1-.19,3,3,0,0,1,1,.19,3.72,3.72,0,0,0,1.28.25,4.29,4.29,0,0,0,.77-.08,45.28,45.28,0,0,1-3.63,3.51Z" transform="translate(-70.5 -139.59)"/><path d="M308.08,244.3a2.35,2.35,0,0,1,.8.17,5.2,5.2,0,0,0,1,.25c-.73.73-1.69,1.64-2.61,2.45h-5.14c-.28-.68-.7-1.63-1.13-2.49a6.15,6.15,0,0,0,.87.06,3.35,3.35,0,0,0,1.58-.33,1,1,0,0,1,.37-.11,1.16,1.16,0,0,1,.38.12,3.84,3.84,0,0,0,1.48.32,4.87,4.87,0,0,0,1.51-.27,2.75,2.75,0,0,1,.89-.17m0-1a3.88,3.88,0,0,0-1.2.22,3.88,3.88,0,0,1-1.2.22c-.88,0-1.25-.44-1.86-.44a1.87,1.87,0,0,0-.82.22,2.56,2.56,0,0,1-1.13.22,20.32,20.32,0,0,1-2.76-.44c-.13,0-.14.06,0,.22.78.77,2.32,4.65,2.32,4.65h6.2s5.4-4.73,4.23-4.73a1.4,1.4,0,0,0-.36.08,3.83,3.83,0,0,1-1.2.22c-.9,0-1.34-.44-2.24-.44Z" transform="translate(-70.5 -139.59)"/><path class="cls-7" d="M719.76,584.67a.6.6,0,0,1-.29.08l-19.69-.1.08-.09Z" transform="translate(-70.5 -139.59)"/><path d="M699.86,584.56l-.08.09,19.69.1a.6.6,0,0,0,.29-.08l-19.9-.11Z" transform="translate(-70.5 -139.59)"/><path class="cls-3" d="M576.63,306.15,548.36,192.71a1,1,0,0,0-1-.78H530a1,1,0,0,0-1,.78l-17.32,69.44-.7,2.54-.73,1.83a25,25,0,0,1-14.92,10.94l-12.82,0-23-.06-.1.05-21.19-.06,24.38-96.86.71-2.91,6.31-25.32a25.57,25.57,0,0,1,15.14-12.19H608.65l.23.87,41.23,165.19Z" transform="translate(-70.5 -139.59)"/><path d="M608.28,140.59l.12.49,41.07,164.57H577L548.84,192.59a1.53,1.53,0,0,0-1.48-1.16H530a1.53,1.53,0,0,0-1.48,1.16l-14.94,59.89L511.25,262l-.7,2.5-.7,1.75A24.48,24.48,0,0,1,495.3,277l-12.75,0h-3l-19.83-.05h-.23l-.08,0-20.49-.05,24.26-96.25.7-2.9L467,165l3.12-12.5a25,25,0,0,1,14.74-11.88H608.28m.37-1H484.76a25.93,25.93,0,0,0-15.54,12.51l-3.15,12.63-3.18,12.75-.7,2.91-24.41,96.83a.53.53,0,0,0,.51.65l21.27.05.14,0,19.83.05h3l12.86,0h0a25.62,25.62,0,0,0,15.32-11.26l.75-1.88.71-2.55,2.38-9.55,14.94-59.89a.52.52,0,0,1,.51-.4h17.32a.52.52,0,0,1,.51.4l28.37,113.82h74.51L609.37,140.84l-.22-.88a.52.52,0,0,0-.5-.37Z" transform="translate(-70.5 -139.59)"/><path class="cls-7" d="M645.91,584,597.79,391a1,1,0,0,0-1-.77H498.32a30.59,30.59,0,0,0-23.92,20.87l0,.07v0a31.6,31.6,0,0,0-.8,3.23L450.8,505.79v.06l-.28,1.07a29.38,29.38,0,0,1-28.28,21.55H104.15c.09-.8.2-1.58.34-2.31a30.66,30.66,0,0,1,.81-3.2,29.31,29.31,0,0,1,28-20.6H365.86a29.79,29.79,0,0,0,10.93-5,30.38,30.38,0,0,0,9.5-11.32l0,0L389,475.31l.3-1.22,26.93-108,3.13-12.55a29.33,29.33,0,0,1,18.47-15.12H583.37a1,1,0,0,0,.81-.4,1,1,0,0,0,.17-.88l-7.47-30h73.48l69.12,277-19.88-.11-.13.19Z" transform="translate(-70.5 -139.59)"/><path d="M650,307.65l68.87,276-19-.1h-.54l-.13.19-52.91-.28-48-192.59a1.53,1.53,0,0,0-1.48-1.14H498.15A31.07,31.07,0,0,0,473.93,411l-.05.16h0a32,32,0,0,0-.79,3.18l-22.76,91.31,0,.15-.25,1A28.9,28.9,0,0,1,422.24,528H104.71c.08-.59.17-1.17.27-1.71A28.8,28.8,0,0,1,114.26,510a29,29,0,0,1,19-7.18H365.86l.12,0a30.25,30.25,0,0,0,11.11-5.08,31.1,31.1,0,0,0,9.65-11.51l0-.1,0-.1,2.65-10.61.3-1.22L410.51,391l6.18-24.8,3.12-12.5a28.88,28.88,0,0,1,18.06-14.79h145.5a1.52,1.52,0,0,0,1.47-1.89l-7.32-29.35H650m.78-1H576.24l7.63,30.59a.52.52,0,0,1-.5.65H437.74a29.9,29.9,0,0,0-18.87,15.44l-3.15,12.61-6.18,24.8L388.79,474l-.3,1.22-2.65,10.61a30,30,0,0,1-9.34,11.14,29.54,29.54,0,0,1-10.75,4.92H133.3A29.85,29.85,0,0,0,104,526.07c-.18.95-.31,1.92-.4,2.9H422.24A29.84,29.84,0,0,0,451,507l.29-1.16v0l22.77-91.33a31.49,31.49,0,0,1,.81-3.25h0a29.88,29.88,0,0,1,23.44-20.52H596.8a.53.53,0,0,1,.51.39l48.1,192.94a.52.52,0,0,0,.5.4l53.56.28a.57.57,0,0,0,.31-.1l.08-.09,19.9.11a.53.53,0,0,0,.22-.57L650.75,306.65Z" transform="translate(-70.5 -139.59)"/><path class="cls-3" d="M333.28,287.28a9.75,9.75,0,0,1,.21-1L336.15,276a15.33,15.33,0,0,1,.85-2.5,16.65,16.65,0,0,1,3.95-5.66l23.69,5.42a16.62,16.62,0,0,1,1,7.65,15.88,15.88,0,0,1-.46,2.6l-2.36,9.14a10.26,10.26,0,0,1-.43,1.29Z" transform="translate(-70.5 -139.59)"/><path d="M341.1,268.38l23.16,5.29a16,16,0,0,1,.87,7.18,16.32,16.32,0,0,1-.44,2.53l-2.36,9.13c-.07.28-.16.55-.26.83l-28.22-6.44.12-.55,2.66-10.24a16.58,16.58,0,0,1,4.47-7.73m-.29-1.09a17.09,17.09,0,0,0-4.27,6,16.91,16.91,0,0,0-.88,2.57L333,286.1a9.22,9.22,0,0,0-.28,1.57l29.95,6.84a10.35,10.35,0,0,0,.61-1.75l2.37-9.13a17.92,17.92,0,0,0,.47-2.68,17.16,17.16,0,0,0-1.12-8.13l-24.2-5.53Z" transform="translate(-70.5 -139.59)"/></svg>